<svg xmlns="http://www.w3.org/2000/svg" viewBox="0 0 32 32"><defs><filter id="xboxGreen" x="-5%" y="-5%" width="110%" height="110%" color-interpolation-filters="sRGB"><feColorMatrix type="saturate" values="0"/><feComponentTransfer><feFuncR type="table" tableValues="0.047 0.365"/><feFuncG type="table" tableValues="0.373 0.761"/><feFuncB type="table" tableValues="0.047 0.118"/></feComponentTransfer></filter></defs><g filter="url(#xboxGreen)"><title>file_type_light_openHAB</title><path d="M3.449,21.989,14.4,11.025l1.6-1.6,1.6,1.6,8.087,8.087-.012.041-.16.47-.181.459-.2.448-.224.437-.2.354L16,12.62,4.613,24.016a13.1,13.1,0,0,1-1.164-2.028Z" style="fill:#e64a19"/><path d="M16,2A14,14,0,1,1,5.431,25.162l.495-.5.359-.359.36-.36.36-.36.015-.015a11.708,11.708,0,1,0-2.5-5.03l-.78.782L2.7,20.365A13.994,13.994,0,0,1,16,2Z" style="fill:#474747"/></g></svg>